<?xml version="1.0" encoding="UTF-8"?>
<!DOCTYPE svg PUBLIC "-//W3C//DTD SVG 1.1//EN" "http://www.w3.org/Graphics/SVG/1.1/DTD/svg11.dtd">
<!-- Creator: CorelDRAW X8 -->
<svg xmlns="http://www.w3.org/2000/svg" xml:space="preserve" width="300px" height="300px" version="1.1" style="shape-rendering:geometricPrecision; text-rendering:geometricPrecision; image-rendering:optimizeQuality; fill-rule:evenodd; clip-rule:evenodd"
viewBox="0 0 300 300"
 xmlns:xlink="http://www.w3.org/1999/xlink">
 <defs>
  <style type="text/css">
   <![CDATA[
    .fil0 {fill:#5591F1}
   ]]>
  </style>
 </defs>
 <g id="Слой_x0020_1">
  <metadata id="CorelCorpID_0Corel-Layer"/>
  <path class="fil0" d="M7 147c0,-29 10,-58 26,-80 4,-6 10,-13 16,-19 24,-24 62,-41 98,-41l6 0c32,0 67,14 90,34 3,3 6,5 9,8 7,8 9,10 16,19 29,42 33,96 12,142 -14,31 -40,57 -71,71 -56,25 -117,13 -160,-29 -11,-11 -23,-27 -29,-42 -10,-20 -13,-39 -13,-63zm86 69c-1,-10 0,-23 0,-34 0,-10 -1,-95 0,-98l30 0 0 132 -30 0zm-6 6l42 0 0 -144 -42 0 0 144zm90 -138l31 0 0 132 -2 0 -27 0 -2 0 0 -132zm-6 138l43 0 0 -144 -43 0 0 144zm-171 -78c0,21 0,30 6,50 1,2 2,4 3,7 1,4 3,8 5,13 5,11 14,25 23,35 5,5 6,6 11,11l5 5c4,3 10,8 15,11 2,1 4,2 6,4 1,0 1,1 2,1 2,1 2,1 3,2 5,2 8,3 12,6 14,6 37,11 52,11 18,0 28,0 45,-5 18,-4 27,-9 42,-18 1,0 1,-1 3,-2l10 -7 23 -23 8 -11c1,-1 2,-3 4,-5 4,-7 12,-24 14,-32 1,-2 2,-4 2,-7 2,-7 4,-15 5,-23 2,-21 1,-14 0,-34 -1,-7 -3,-17 -5,-23 -1,-5 -5,-17 -7,-21 -3,-6 -5,-11 -9,-18 -6,-9 -16,-22 -23,-29l-17 -14 -11 -7c-9,-6 -16,-8 -25,-12 -13,-5 -33,-9 -47,-9 -22,0 -35,1 -56,9l-13 5c-10,4 -21,12 -30,19 -4,3 -17,15 -21,20 -1,1 -1,2 -2,2 -4,6 -9,13 -13,19 -2,4 -4,8 -6,12 -8,18 -14,38 -14,58z"/>
 </g>
</svg>
