<?xml version="1.0" encoding="UTF-8"?>
<!DOCTYPE svg PUBLIC "-//W3C//DTD SVG 1.1//EN" "http://www.w3.org/Graphics/SVG/1.1/DTD/svg11.dtd">
<!-- Creator: CorelDRAW X8 -->
<svg xmlns="http://www.w3.org/2000/svg" xml:space="preserve" width="300px" height="300px" version="1.1" style="shape-rendering:geometricPrecision; text-rendering:geometricPrecision; image-rendering:optimizeQuality; fill-rule:evenodd; clip-rule:evenodd"
viewBox="0 0 300 300"
 xmlns:xlink="http://www.w3.org/1999/xlink">
 <defs>
  <style type="text/css">
   <![CDATA[
    .fil0 {fill:#5591F1}
   ]]>
  </style>
 </defs>
 <g id="Слой_x0020_1">
  <metadata id="CorelCorpID_0Corel-Layer"/>
  <path class="fil0" d="M7 147c0,-19 6,-43 13,-57 15,-31 38,-56 70,-70 16,-7 37,-13 56,-13l7 0c37,0 75,18 98,42 27,28 42,62 42,103 0,43 -21,79 -42,99 -21,21 -56,42 -99,42l-5 0c-37,0 -79,-19 -102,-46 -2,-2 -3,-3 -5,-5 -19,-23 -33,-57 -33,-88l0 -7zm92 -65c2,1 59,34 60,34 9,6 19,12 29,17l22 13c2,1 6,3 7,4 -2,1 -5,3 -7,4l-96 55c-2,2 -13,8 -15,9l0 -136zm-6 146c2,0 3,-1 4,-2 21,-12 44,-24 64,-36 12,-7 23,-13 34,-20 6,-3 11,-7 17,-10l17 -10c0,-1 -2,-2 -4,-2l-12 -8c-19,-10 -118,-68 -120,-68l0 156zm61 72l-6 0c-5,0 -10,0 -16,-1 -8,-1 -22,-4 -30,-7 -2,-1 -4,-1 -7,-2l-16 -7c-1,-1 -1,-2 -2,-2l-6 -3c-3,-2 -14,-10 -16,-12 -2,-1 -4,-3 -5,-4l-9 -9c-1,-1 -2,-2 -3,-2 -1,-1 -1,-2 -2,-3 -5,-5 -11,-15 -15,-21 -5,-8 -12,-23 -14,-32 -3,-10 -4,-12 -6,-22 -1,-10 -1,-19 -1,-29 0,-22 8,-46 18,-65 0,-1 1,-2 1,-3l7 -11c5,-7 9,-12 15,-18 8,-9 22,-20 33,-26l28 -13c13,-5 34,-8 48,-8 27,0 57,8 80,23 9,6 18,14 26,21 1,1 2,2 2,2l7 8c1,1 1,2 2,3 12,15 19,27 25,45 5,14 8,33 8,48 0,7 -1,14 -2,22 0,1 0,2 0,4 -2,10 -7,27 -11,36 -1,2 -2,4 -3,6 -6,11 -11,18 -19,28 -4,6 -11,12 -16,17 -1,1 -2,1 -3,2 -3,2 -4,4 -8,6 -1,1 -1,1 -2,2l-12 7c-1,1 -2,1 -3,2l-23 10c-16,5 -30,8 -44,8z"/>
 </g>
</svg>
